<?xml version="1.0" standalone="no"?>
<!DOCTYPE svg PUBLIC "-//W3C//DTD SVG 20010904//EN"
 "http://www.w3.org/TR/2001/REC-SVG-20010904/DTD/svg10.dtd">
<svg version="1.0" xmlns="http://www.w3.org/2000/svg"
 width="500.000000pt" height="500.000000pt" viewBox="0 0 500.000000 500.000000"
 preserveAspectRatio="xMidYMid meet">

<g transform="translate(0.000000,500.000000) scale(0.100000,-0.100000)"
fill="#000000" stroke="none">
<path d="M0 2500 l0 -2500 2500 0 2500 0 0 2500 0 2500 -2500 0 -2500 0 0
-2500z m2781 1485 c393 -69 680 -418 679 -828 -1 -304 -194 -604 -473 -734
-219 -102 -442 -108 -669 -17 -51 20 -98 37 -104 37 -6 0 -82 -23 -167 -52
-139 -47 -160 -51 -190 -42 -24 8 -36 21 -45 44 -11 30 -7 48 43 198 l55 164
-31 70 c-146 324 -80 686 170 934 193 191 461 274 732 226z m-1243 -1937 c5
-7 25 -67 43 -132 l33 -120 41 130 c40 126 41 129 69 129 36 0 38 -4 78 -144
l32 -114 33 109 c46 149 48 154 77 154 14 0 27 -4 30 -9 8 -13 -92 -317 -108
-331 -8 -6 -25 -10 -38 -8 -28 4 -50 44 -79 148 l-22 75 -33 -99 c-18 -54 -38
-104 -45 -112 -18 -21 -57 -17 -73 9 -15 22 -96 288 -96 313 0 18 44 18 58 2z
m782 -13 c37 -19 45 -47 45 -155 0 -108 -8 -136 -45 -155 -36 -19 -174 -20
-210 -2 -33 17 -49 66 -49 157 0 91 16 140 49 157 36 18 174 17 210 -2z m378
3 c7 -7 12 -31 12 -54 0 -43 -5 -50 -70 -94 -124 -84 -161 -119 -127 -121 6 0
53 -1 102 -2 89 -2 90 -2 90 -27 0 -25 -1 -25 -100 -28 -130 -4 -143 0 -150
42 -9 48 4 67 97 134 94 68 129 102 107 103 -8 0 -53 0 -102 -1 -71 -1 -88 2
-93 14 -15 40 1 46 114 46 71 0 112 -4 120 -12z m759 -3 c26 -18 46 -83 37
-120 -12 -48 -48 -65 -135 -65 l-79 0 0 -69 c0 -64 -1 -68 -22 -67 -22 1 -23
4 -23 96 l0 95 98 1 c53 1 100 4 104 7 7 8 9 65 2 71 -3 3 -49 6 -103 7 -100
2 -116 8 -102 44 8 22 192 22 223 0z m-438 -40 c12 -25 21 -47 21 -49 0 -3 20
-53 45 -110 25 -58 45 -109 45 -114 0 -4 -9 -8 -20 -9 -16 -1 -27 11 -45 50
-31 66 -75 180 -75 195 0 26 -20 20 -34 -10 -47 -103 -49 -126 -13 -112 17 6
50 -23 44 -40 -2 -6 -26 -12 -54 -14 -47 -3 -51 -5 -57 -33 -6 -31 -26 -45
-50 -36 -15 6 4 62 86 255 27 64 34 72 58 72 23 0 31 -8 49 -45z m-777 -462
c14 -12 18 -31 18 -80 0 -56 -2 -64 -17 -61 -10 2 -19 13 -21 26 -3 18 -10 22
-43 22 -35 0 -39 -3 -39 -25 0 -16 -6 -25 -15 -25 -22 0 -21 117 2 142 21 23
89 24 115 1z m98 -36 c0 -58 12 -77 46 -77 30 0 33 7 35 74 2 47 5 56 21 56
15 0 18 -8 18 -62 0 -76 -16 -98 -73 -98 -61 0 -77 20 -77 97 0 49 3 63 15 63
11 0 15 -13 15 -53z m348 36 c-2 -12 -14 -19 -36 -21 l-32 -3 0 -60 c0 -52 -2
-59 -20 -59 -18 0 -20 7 -20 59 l0 60 -32 3 c-22 2 -34 9 -36 21 -3 15 6 17
88 17 82 0 91 -2 88 -17z m183 -5 c23 -26 25 -85 3 -116 -19 -27 -88 -31 -116
-5 -24 21 -25 99 -1 125 24 26 90 24 114 -4z"/>
<path d="M2514 3829 c-164 -27 -331 -134 -426 -273 -87 -127 -122 -240 -122
-391 0 -115 23 -204 82 -323 l37 -73 -37 -104 c-20 -58 -33 -107 -29 -110 5
-2 55 11 112 30 l104 36 80 -40 c361 -179 759 -45 926 313 63 134 75 315 31
468 -38 133 -149 285 -267 364 -137 93 -322 131 -491 103z m66 -201 c20 -22
26 -61 14 -93 -4 -9 -39 -32 -79 -50 -83 -38 -151 -100 -183 -168 -12 -26 -22
-51 -22 -55 0 -5 -11 -21 -25 -36 -32 -34 -77 -35 -110 -1 -34 33 -32 67 10
153 85 179 322 328 395 250z m266 -13 c38 -19 86 -48 107 -65 85 -72 177 -242
157 -294 -11 -30 -47 -56 -77 -56 -32 0 -68 38 -88 95 -26 71 -122 166 -192
189 -88 29 -118 92 -68 141 34 35 78 32 161 -10z m-569 -490 c11 -8 28 -35 36
-60 34 -97 109 -175 205 -211 26 -10 55 -27 65 -38 41 -45 4 -126 -58 -126
-49 0 -165 62 -232 123 -66 62 -128 165 -139 234 -5 36 -3 45 19 67 30 29 71
34 104 11z m812 -11 c27 -34 26 -72 -1 -137 -43 -104 -130 -194 -236 -247
-113 -56 -174 -48 -188 25 -8 42 24 79 85 100 81 27 201 151 201 208 0 10 13
32 29 48 38 38 82 39 110 3z"/>
<path d="M2142 1978 c-8 -8 -12 -46 -12 -104 0 -104 0 -104 81 -104 83 0 89 7
89 108 0 55 -4 92 -12 100 -16 16 -130 16 -146 0z"/>
<path d="M2154 1508 c-19 -29 -12 -38 28 -38 35 0 39 2 36 23 -3 25 -51 37
-64 15z"/>
<path d="M2782 1503 c-5 -10 -8 -26 -6 -36 6 -40 14 -48 41 -45 26 3 28 6 28
48 0 41 -2 45 -27 48 -18 2 -30 -3 -36 -15z"/>
</g>
</svg>
